<?xml version="1.0" encoding="utf-8"?><!-- Uploaded to: SVG Repo, www.svgrepo.com, Generator: SVG Repo Mixer Tools -->
<svg fill="#000000" width="800px" height="800px" viewBox="0 0 24 24" id="note-check" data-name="Flat Color" xmlns="http://www.w3.org/2000/svg" class="icon flat-color"><rect id="primary" x="4" y="3" width="16" height="19" rx="2" style="fill: rgb(0, 0, 0);"></rect><path id="secondary" d="M16,3V5a1,1,0,0,1-1,1H9A1,1,0,0,1,8,5V3A1,1,0,0,1,9,2h6A1,1,0,0,1,16,3ZM11.71,15.71l4-4a1,1,0,0,0-1.42-1.42L11,13.59l-1.29-1.3a1,1,0,0,0-1.42,1.42l2,2a1,1,0,0,0,1.42,0Z" style="fill: rgb(44, 169, 188);"></path></svg>